<svg width="130" height="94" viewBox="0 0 130 94" fill="none" xmlns="http://www.w3.org/2000/svg">
<path d="M62.7892 1.08985C64.183 0.40276 65.817 0.402761 67.2108 1.08986L102.052 18.2653C106.798 20.605 105.132 27.75 99.8409 27.75H30.1591C24.8677 27.75 23.2022 20.605 27.9483 18.2653L62.7892 1.08985Z" fill="#333333"/>
<path d="M67.2108 92.9101C65.817 93.5972 64.183 93.5972 62.7892 92.9101L27.9483 75.7347C23.2022 73.395 24.8677 66.25 30.1591 66.25L99.8409 66.25C105.132 66.25 106.798 73.395 102.052 75.7347L67.2108 92.9101Z" fill="#333333"/>
<rect x="23.1978" y="26.5433" width="83.3339" height="41.3583" fill="#333333"/>
<path d="M52.7259 54.256C50.8272 54.256 49.1952 53.8507 47.8299 53.04C46.4645 52.208 45.4192 51.0987 44.6939 49.712C43.9685 48.3253 43.6059 46.8 43.6059 45.136C43.6059 43.4507 43.9685 41.9253 44.6939 40.56C45.4192 39.1733 46.4645 38.0747 47.8299 37.264C49.1952 36.432 50.8272 36.016 52.7259 36.016C54.1125 36.016 55.3605 36.2507 56.4699 36.72C57.5792 37.168 58.5179 37.7973 59.2859 38.608L58.6139 39.28C57.9099 38.576 57.0672 38.0213 56.0859 37.616C55.1045 37.2107 53.9845 37.008 52.7259 37.008C51.0192 37.008 49.5472 37.3813 48.3099 38.128C47.0939 38.8533 46.1659 39.8347 45.5259 41.072C44.8859 42.288 44.5659 43.6427 44.5659 45.136C44.5659 46.6293 44.8859 47.9947 45.5259 49.232C46.1659 50.448 47.0939 51.4293 48.3099 52.176C49.5472 52.9013 51.0192 53.264 52.7259 53.264C53.9845 53.264 55.1045 53.0613 56.0859 52.656C57.0672 52.2507 57.9099 51.696 58.6139 50.992L59.2859 51.664C58.5179 52.4533 57.5792 53.0827 56.4699 53.552C55.3605 54.0213 54.1125 54.256 52.7259 54.256ZM52.7259 56.368C51.0192 56.368 49.4725 56.08 48.0859 55.504C46.7205 54.9067 45.5365 54.096 44.5339 53.072C43.5525 52.048 42.7952 50.864 42.2619 49.52C41.7499 48.1547 41.4939 46.6933 41.4939 45.136C41.4939 43.5787 41.7499 42.128 42.2619 40.784C42.7952 39.4187 43.5525 38.224 44.5339 37.2C45.5365 36.1547 46.7205 35.344 48.0859 34.768C49.4725 34.192 51.0192 33.904 52.7259 33.904C54.4112 33.904 55.9259 34.192 57.2699 34.768C58.6352 35.3227 59.8085 36.1013 60.7899 37.104L60.0859 37.808C59.2112 36.8907 58.1445 36.176 56.8859 35.664C55.6485 35.152 54.2619 34.896 52.7259 34.896C50.6352 34.896 48.8112 35.3547 47.2539 36.272C45.7179 37.1893 44.5339 38.4267 43.7019 39.984C42.8699 41.52 42.4539 43.2373 42.4539 45.136C42.4539 47.0133 42.8699 48.7307 43.7019 50.288C44.5339 51.8453 45.7179 53.0827 47.2539 54C48.8112 54.9173 50.6352 55.376 52.7259 55.376C54.2619 55.376 55.6485 55.12 56.8859 54.608C58.1445 54.096 59.2112 53.3813 60.0859 52.464L60.7899 53.168C59.8085 54.1493 58.6352 54.928 57.2699 55.504C55.9259 56.08 54.4112 56.368 52.7259 56.368ZM52.7259 58.48C50.7205 58.48 48.8965 58.1387 47.2539 57.456C45.6325 56.752 44.2352 55.792 43.0619 54.576C41.8885 53.36 40.9819 51.952 40.3419 50.352C39.7019 48.7307 39.3819 46.992 39.3819 45.136C39.3819 43.28 39.7019 41.552 40.3419 39.952C40.9819 38.3307 41.8885 36.912 43.0619 35.696C44.2352 34.48 45.6325 33.5307 47.2539 32.848C48.8965 32.144 50.7205 31.792 52.7259 31.792C54.6885 31.792 56.4805 32.1333 58.1019 32.816C59.7232 33.4773 61.1205 34.4053 62.2939 35.6L61.6219 36.272C60.5339 35.184 59.2325 34.3307 57.7179 33.712C56.2245 33.072 54.5605 32.752 52.7259 32.752C50.8485 32.752 49.1525 33.072 47.6379 33.712C46.1232 34.352 44.8219 35.2373 43.7339 36.368C42.6459 37.4987 41.8032 38.8213 41.2059 40.336C40.6299 41.8293 40.3419 43.4293 40.3419 45.136C40.3419 46.8427 40.6299 48.4533 41.2059 49.968C41.8032 51.4613 42.6459 52.7733 43.7339 53.904C44.8219 55.0347 46.1232 55.92 47.6379 56.56C49.1525 57.2 50.8485 57.52 52.7259 57.52C54.5605 57.52 56.2245 57.2107 57.7179 56.592C59.2325 55.952 60.5339 55.088 61.6219 54L62.2939 54.672C61.1205 55.8453 59.7232 56.7733 58.1019 57.456C56.4805 58.1387 54.6885 58.48 52.7259 58.48ZM88.6724 45.136C88.6724 43.4293 88.3737 41.8293 87.7764 40.336C87.2004 38.8213 86.3684 37.4987 85.2804 36.368C84.1924 35.2373 82.891 34.352 81.3764 33.712C79.8617 33.072 78.1657 32.752 76.2884 32.752C74.411 32.752 72.715 33.072 71.2004 33.712C69.6857 34.352 68.3844 35.2373 67.2964 36.368C66.2084 37.4987 65.3657 38.8213 64.7684 40.336C64.1924 41.8293 63.9044 43.4293 63.9044 45.136C63.9044 46.8427 64.1924 48.4533 64.7684 49.968C65.3657 51.4613 66.2084 52.7733 67.2964 53.904C68.3844 55.0347 69.6857 55.92 71.2004 56.56C72.715 57.2 74.411 57.52 76.2884 57.52C78.1657 57.52 79.8617 57.2 81.3764 56.56C82.891 55.92 84.1924 55.0347 85.2804 53.904C86.3684 52.7733 87.2004 51.4613 87.7764 49.968C88.3737 48.4533 88.6724 46.8427 88.6724 45.136ZM86.5604 45.136C86.5604 43.2373 86.1444 41.52 85.3124 39.984C84.4804 38.4267 83.2964 37.1893 81.7604 36.272C80.2244 35.3547 78.4004 34.896 76.2884 34.896C74.1977 34.896 72.3737 35.3547 70.8164 36.272C69.2804 37.1893 68.0964 38.4267 67.2644 39.984C66.4324 41.52 66.0164 43.2373 66.0164 45.136C66.0164 47.0133 66.4324 48.7307 67.2644 50.288C68.0964 51.8453 69.2804 53.0827 70.8164 54C72.3737 54.9173 74.1977 55.376 76.2884 55.376C78.4004 55.376 80.2244 54.9173 81.7604 54C83.2964 53.0827 84.4804 51.8453 85.3124 50.288C86.1444 48.7307 86.5604 47.0133 86.5604 45.136ZM84.4484 45.136C84.4484 43.6427 84.1284 42.288 83.4884 41.072C82.8484 39.8347 81.9204 38.8533 80.7044 38.128C79.4884 37.3813 78.0164 37.008 76.2884 37.008C74.5817 37.008 73.1097 37.3813 71.8724 38.128C70.6564 38.8533 69.7284 39.8347 69.0884 41.072C68.4484 42.288 68.1284 43.6427 68.1284 45.136C68.1284 46.6293 68.4484 47.9947 69.0884 49.232C69.7284 50.448 70.6564 51.4293 71.8724 52.176C73.1097 52.9013 74.5817 53.264 76.2884 53.264C78.0164 53.264 79.4884 52.9013 80.7044 52.176C81.9204 51.4293 82.8484 50.448 83.4884 49.232C84.1284 47.9947 84.4484 46.6293 84.4484 45.136ZM76.2884 54.256C74.3897 54.256 72.7577 53.8507 71.3924 53.04C70.027 52.208 68.9817 51.0987 68.2564 49.712C67.531 48.3253 67.1684 46.8 67.1684 45.136C67.1684 43.4507 67.531 41.9253 68.2564 40.56C68.9817 39.1733 70.027 38.0747 71.3924 37.264C72.7577 36.432 74.3897 36.016 76.2884 36.016C78.187 36.016 79.819 36.432 81.1844 37.264C82.5497 38.0747 83.595 39.1733 84.3204 40.56C85.0457 41.9253 85.4084 43.4507 85.4084 45.136C85.4084 46.8 85.0457 48.3253 84.3204 49.712C83.595 51.0987 82.5497 52.208 81.1844 53.04C79.819 53.8507 78.187 54.256 76.2884 54.256ZM76.2884 56.368C74.5817 56.368 73.035 56.08 71.6484 55.504C70.283 54.9067 69.099 54.096 68.0964 53.072C67.115 52.048 66.3577 50.864 65.8244 49.52C65.3124 48.1547 65.0564 46.6933 65.0564 45.136C65.0564 43.5787 65.3124 42.128 65.8244 40.784C66.3577 39.4187 67.115 38.224 68.0964 37.2C69.099 36.1547 70.283 35.344 71.6484 34.768C73.035 34.192 74.5817 33.904 76.2884 33.904C77.995 33.904 79.531 34.192 80.8964 34.768C82.283 35.344 83.467 36.1547 84.4484 37.2C85.451 38.224 86.2084 39.4187 86.7204 40.784C87.2537 42.128 87.5204 43.5787 87.5204 45.136C87.5204 46.6933 87.2537 48.1547 86.7204 49.52C86.2084 50.864 85.451 52.048 84.4484 53.072C83.467 54.096 82.283 54.9067 80.8964 55.504C79.531 56.08 77.995 56.368 76.2884 56.368ZM76.2884 58.48C74.283 58.48 72.459 58.1387 70.8164 57.456C69.195 56.752 67.7977 55.792 66.6244 54.576C65.451 53.36 64.5444 51.952 63.9044 50.352C63.2644 48.7307 62.9444 46.992 62.9444 45.136C62.9444 43.28 63.2644 41.552 63.9044 39.952C64.5444 38.3307 65.451 36.912 66.6244 35.696C67.7977 34.48 69.195 33.5307 70.8164 32.848C72.459 32.144 74.283 31.792 76.2884 31.792C78.2937 31.792 80.107 32.144 81.7284 32.848C83.371 33.5307 84.779 34.48 85.9524 35.696C87.1257 36.912 88.0324 38.3307 88.6724 39.952C89.3124 41.552 89.6324 43.28 89.6324 45.136C89.6324 46.992 89.3124 48.7307 88.6724 50.352C88.0324 51.952 87.1257 53.36 85.9524 54.576C84.779 55.792 83.371 56.752 81.7284 57.456C80.107 58.1387 78.2937 58.48 76.2884 58.48Z" fill="#FAFAFA"/>
</svg>
